<svg width="203" height="130" viewBox="0 0 203 130" fill="none" xmlns="http://www.w3.org/2000/svg">
<g id="Group 4">
<path id="Vector 14" d="M142.379 29.1169H170.064" stroke="#212121" stroke-width="6" stroke-linecap="round"/>
<path id="Vector 17" d="M142.379 101.193H173.406" stroke="#212121" stroke-width="6" stroke-linecap="round"/>
<path id="Vector 18" d="M171.974 28.6396V100.716" stroke="#212121" stroke-width="6" stroke-linecap="round"/>
<path id="Vector 19" d="M171.974 29.1169L195.84 52.506" stroke="#212121" stroke-width="6" stroke-linecap="round"/>
<path id="Vector 20" d="M172.451 100.239L196.317 76.3723" stroke="#212121" stroke-width="6" stroke-linecap="round"/>
<path id="Vector 2" d="M7.29593 45.8234H46.9141" stroke="#212121" stroke-width="6" stroke-linecap="round"/>
<path id="Vector 3" d="M18.7518 33.4129H104.193" stroke="#212121" stroke-width="6" stroke-linecap="round"/>
<path id="Vector 4" d="M64.0979 58.2339L129.492 58.2339" stroke="#212121" stroke-width="6" stroke-linecap="round"/>
<path id="Vector 5" d="M3 70.6444H118.513" stroke="#212121" stroke-width="6" stroke-linecap="round"/>
<path id="Vector 6" d="M65.5298 21.0024H97.5107" stroke="#212121" stroke-width="6" stroke-linecap="round"/>
<path id="Vector 7" d="M45.0048 21.4797H53.5966" stroke="#212121" stroke-width="6" stroke-linecap="round"/>
<path id="Vector 8" d="M125.673 28.6396H103.239" stroke="#212121" stroke-width="6" stroke-linecap="round"/>
<path id="Vector 9" d="M18.7518 83.0549H29.7303" stroke="#212121" stroke-width="6" stroke-linecap="round"/>
<path id="Vector 10" d="M57.8926 83.0549H109.444" stroke="#212121" stroke-width="6" stroke-linecap="round"/>
<path id="Vector 11" d="M43.0955 95.4654H73.1671" stroke="#212121" stroke-width="6" stroke-linecap="round"/>
<path id="Vector 12" d="M93.6921 100.716L123.764 100.716" stroke="#212121" stroke-width="6" stroke-linecap="round"/>
<path id="Vector 13" d="M13.0239 107.876H105.148" stroke="#212121" stroke-width="6" stroke-linecap="round"/>
<circle id="Ellipse 1" cx="65.5298" cy="45.8234" r="2.86396" fill="#212121"/>
<circle id="Ellipse 7" cx="99.8974" cy="100.716" r="14.3198" fill="#212121"/>
<circle id="Ellipse 16" cx="99.8974" cy="28.6396" r="14.3198" fill="#212121"/>
<circle id="Ellipse 17" cx="171.974" cy="28.6396" r="14.3198" fill="#212121"/>
<circle id="Ellipse 18" cx="171.974" cy="100.716" r="14.3198" fill="#212121"/>
<circle id="Ellipse 15" cx="136.174" cy="64.4391" r="19.0931" fill="#C00000"/>
<circle id="Ellipse 6" cx="42.1408" cy="83.0549" r="2.86396" fill="#212121"/>
<circle id="Ellipse 4" cx="82.7136" cy="45.8234" r="2.86396" fill="#212121"/>
<circle id="Ellipse 27" cx="200.091" cy="64.4392" r="1.90931" fill="#212121"/>
<circle id="Ellipse 28" cx="191.909" cy="64.4392" r="1.90931" fill="#212121"/>
<circle id="Ellipse 14" cx="141.902" cy="28.6396" r="7.1599" fill="#212121"/>
<circle id="Ellipse 20" cx="130.924" cy="7.1599" r="7.1599" fill="#212121"/>
<circle id="Ellipse 22" cx="195.84" cy="14.3198" r="7.1599" fill="#212121"/>
<circle id="Ellipse 23" cx="195.84" cy="115.036" r="7.1599" fill="#212121"/>
<circle id="Ellipse 24" cx="195.84" cy="76.3723" r="7.1599" fill="#212121"/>
<circle id="Ellipse 25" cx="195.84" cy="52.506" r="7.1599" fill="#212121"/>
<circle id="Ellipse 21" cx="130.924" cy="122.196" r="7.1599" fill="#212121"/>
<circle id="Ellipse 12" cx="171.974" cy="64.4391" r="7.1599" fill="#212121"/>
<circle id="Ellipse 19" cx="141.902" cy="100.716" r="7.1599" fill="#212121"/>
<path id="Ellipse 3" d="M34.5036 95.4654C34.5036 97.0471 33.2213 98.3294 31.6396 98.3294C30.0579 98.3294 28.7757 97.0471 28.7757 95.4654C28.7757 93.8837 30.0579 92.6014 31.6396 92.6014C33.2213 92.6014 34.5036 93.8837 34.5036 95.4654Z" fill="#212121"/>
<circle id="Ellipse 2" cx="49.3007" cy="58.2339" r="2.86396" fill="#212121"/>
<g id="Group 1">
<ellipse id="Ellipse 26" cx="3.25831" cy="3.20466" rx="3.25831" ry="3.20466" transform="matrix(-0.595623 0.803264 -0.757175 -0.653212 136.416 58.1245)" fill="#F2ECE6"/>
<ellipse id="Ellipse 27_2" cx="144.046" cy="58.6299" rx="3.10713" ry="3.35144" fill="#F2ECE6"/>
<ellipse id="Ellipse 28_2" cx="128.303" cy="71.5888" rx="3.10713" ry="3.35144" fill="#F2ECE6"/>
<ellipse id="Ellipse 29" cx="140.731" cy="71.5888" rx="3.10713" ry="3.35144" fill="#F2ECE6"/>
<path id="Vector 21" d="M128.51 71.8123L132.239 58.8533L140.524 71.8123L143.838 58.8533" stroke="#F2ECE6" stroke-width="2" stroke-linecap="round"/>
</g>
</g>
</svg>
